<?xml version="1.0" standalone="no"?>
<svg viewBox="0 0 200 200" xmlns="http://www.w3.org/2000/svg">
  <path fill="#FF0066" d="M43.9,-68C57.4,-68.3,69.1,-57.5,68.8,-44.3C68.4,-31.1,56,-15.6,53.5,-1.4C51,12.7,58.4,25.3,56.1,34C53.9,42.6,41.9,47.2,30.9,53.8C20,60.3,10,68.7,-0.1,68.8C-10.2,69,-20.3,60.9,-32.9,55.3C-45.5,49.7,-60.5,46.7,-61.9,37.9C-63.3,29.1,-51.2,14.5,-47,2.4C-42.8,-9.7,-46.7,-19.4,-45.3,-28.3C-43.9,-37.1,-37.2,-45,-28.8,-47.7C-20.4,-50.4,-10.2,-47.8,2.5,-52.2C15.2,-56.5,30.4,-67.8,43.9,-68Z" transform="translate(100 100)" />
</svg>
